<?xml version="1.0" encoding="UTF-8"?>
<svg id="Layer_2" data-name="Layer 2" xmlns="http://www.w3.org/2000/svg" viewBox="0 0 32.81 33.29">
  <defs>
    <style>
      .cls-1 {
        fill: #ffffff;
      }
    </style>
  </defs>
  <g id="Layer_16" data-name="Layer 16">
    <g>
      <path class="cls-1" d="M0,20.04l.02-9.13c0-.15.08-.3.21-.38L16,.08c.16-.1.36-.1.51,0l16.03,10.66c.13.09.21.23.21.38l.07,8.41c0,.37-.4.59-.71.4l-15.57-9.8c-.16-.1-.35-.09-.51,0L.72,20.41C.42,20.61.01,20.4,0,20.04h0Z"/>
      <path class="cls-1" d="M0,32.84l.02-9.13c0-.15.08-.3.21-.38l15.76-10.45c.16-.1.36-.1.51,0l16.03,10.66c.13.09.21.23.21.38l.07,8.41c0,.37-.4.59-.71.4l-15.57-9.8c-.16-.1-.35-.09-.51,0L.72,33.22C.42,33.42.01,33.21,0,32.84h0Z"/>
    </g>
  </g>
</svg>